<?xml version="1.0" standalone="no"?>
<!DOCTYPE svg PUBLIC "-//W3C//DTD SVG 20010904//EN"
 "http://www.w3.org/TR/2001/REC-SVG-20010904/DTD/svg10.dtd">
<svg version="1.0" xmlns="http://www.w3.org/2000/svg"
 width="500.000000pt" height="500.000000pt" viewBox="0 0 500.000000 500.000000"
 preserveAspectRatio="xMidYMid meet">
<metadata>
Created by potrace 1.14, written by Peter Selinger 2001-2017
</metadata>
<g transform="translate(0.000000,500.000000) scale(0.100000,-0.100000)"
fill="#000000" stroke="none">
<path d="M2686 3368 c-7 -18 -143 -323 -300 -678 -210 -473 -296 -654 -319
-678 -93 -97 -236 -101 -328 -9 -49 48 -63 85 -64 162 0 66 4 79 79 245 43 96
85 190 92 208 l14 32 -278 0 -279 0 -51 -117 c-78 -183 -87 -219 -87 -368 0
-108 4 -142 23 -205 81 -258 275 -446 530 -511 105 -27 262 -26 368 2 179 47
342 166 442 324 14 21 184 396 377 832 l353 793 -279 0 -279 0 -14 -32z"/>
</g>
</svg>
